<svg xmlns="http://www.w3.org/2000/svg" version="1.1" xmlns:xlink="http://www.w3.org/1999/xlink" xmlns:svgjs="http://svgjs.com/svgjs" width="2560" height="1440" preserveAspectRatio="none" viewBox="0 0 2560 1440"><g mask="url(&quot;#SvgjsMask1044&quot;)" fill="none"><rect width="2560" height="1440" x="0" y="0" fill="rgba(255, 255, 255, 1)"></rect><path d="M 0,20 C 170.8,54.8 512.4,175.6 854,194 C 1195.6,212.4 1366.8,111.6 1708,112 C 2049.2,112.4 2389.6,179.2 2560,196L2560 1440L0 1440z" fill="rgba(255, 255, 255, 1)"></path><path d="M 0,470 C 170.8,498.6 512.4,631 854,613 C 1195.6,595 1366.8,392.4 1708,380 C 2049.2,367.6 2389.6,516.8 2560,551L2560 1440L0 1440z" fill="rgba(255, 255, 255, 1)"></path><path d="M 0,730 C 102.4,784.6 307.2,994 512,1003 C 716.8,1012 819.2,772 1024,775 C 1228.8,778 1331.2,1020 1536,1018 C 1740.8,1016 1843.2,774.4 2048,765 C 2252.8,755.6 2457.6,929.8 2560,971L2560 1440L0 1440z" fill="rgba(204, 204, 255, 1)"></path><path d="M 0,1401 C 170.8,1337.4 512.4,1090.4 854,1083 C 1195.6,1075.6 1366.8,1343.4 1708,1364 C 2049.2,1384.6 2389.6,1221.6 2560,1186L2560 1440L0 1440z" fill="rgba(153, 153, 204, 1)"></path></g><defs><mask id="SvgjsMask1044"><rect width="2560" height="1440" fill="#ffffff"></rect></mask></defs></svg>